<?xml version="1.0" standalone="no"?>
<!DOCTYPE svg PUBLIC "-//W3C//DTD SVG 20010904//EN"
 "http://www.w3.org/TR/2001/REC-SVG-20010904/DTD/svg10.dtd">
<svg version="1.0" xmlns="http://www.w3.org/2000/svg"
 width="900.000000pt" height="900.000000pt" viewBox="0 0 900.000000 900.000000"
 preserveAspectRatio="xMidYMid meet">
<metadata>
Created by potrace 1.10, written by Peter Selinger 2001-2011
</metadata>
<g transform="translate(0.000000,900.000000) scale(0.100000,-0.100000)"
fill="#030303" stroke="none">
<path d="M4200 8844 c-129 -6 -440 -47 -600 -80 -167 -35 -446 -110 -550 -149
-150 -56 -203 -76 -240 -92 -19 -9 -48 -21 -65 -29 -67 -28 -304 -146 -360
-179 -33 -19 -67 -38 -75 -41 -25 -11 -160 -95 -230 -143 -36 -24 -94 -64
-130 -89 -196 -134 -510 -416 -716 -642 -31 -35 -195 -234 -242 -295 -29 -37
-192 -275 -192 -280 0 -2 -13 -23 -29 -47 -16 -24 -39 -61 -51 -83 -12 -22
-37 -67 -56 -100 -31 -56 -149 -294 -179 -360 -17 -40 -74 -182 -90 -225 -7
-19 -20 -53 -28 -75 -15 -41 -68 -211 -92 -300 -48 -177 -74 -309 -115 -580
-15 -101 -40 -443 -40 -560 0 -257 36 -610 96 -920 14 -75 21 -104 61 -260 20
-79 130 -422 148 -460 7 -16 23 -55 35 -85 45 -113 138 -308 192 -401 14 -26
41 -73 59 -105 17 -33 44 -77 58 -99 14 -22 30 -48 36 -58 51 -88 239 -340
362 -485 176 -207 417 -439 648 -621 90 -71 341 -243 412 -282 21 -11 54 -30
73 -41 123 -74 442 -224 603 -284 20 -8 54 -21 75 -29 20 -8 62 -22 92 -31 30
-9 71 -23 90 -29 19 -7 64 -21 100 -30 36 -10 85 -23 110 -31 46 -13 120 -31
250 -59 41 -9 102 -22 135 -30 41 -9 64 -10 73 -3 9 8 12 330 12 1548 0 846
-3 1545 -6 1554 -5 14 -57 16 -479 16 -387 0 -475 2 -484 14 -8 9 -10 178 -9
612 l3 599 474 3 c330 1 478 6 488 13 10 9 13 106 13 512 0 494 7 651 36 817
43 242 127 463 249 650 54 83 217 252 310 322 173 130 368 221 585 272 218 51
218 51 580 50 346 -1 465 -8 742 -50 53 -8 112 -14 130 -14 19 0 44 -7 56 -16
l22 -15 0 -519 c0 -503 -1 -520 -19 -530 -13 -6 -162 -10 -418 -10 -223 0
-433 -5 -478 -10 -276 -37 -430 -152 -522 -390 -38 -98 -43 -174 -43 -622 0
-422 1 -438 19 -448 13 -6 231 -10 639 -10 666 0 634 3 627 -51 -7 -50 -51
-329 -80 -509 -7 -47 -21 -132 -30 -190 -9 -58 -23 -148 -31 -200 -25 -165
-43 -262 -49 -269 -4 -3 -194 -8 -423 -11 l-417 -5 -3 -1553 c-2 -1389 0
-1553 13 -1559 9 -3 37 0 63 6 205 52 241 62 412 119 232 76 493 190 685 297
33 19 67 37 75 41 58 27 311 190 419 271 87 64 235 178 251 193 9 8 36 33 60
54 177 155 293 271 474 476 131 148 314 399 423 580 114 189 235 430 298 590
9 25 21 53 26 62 11 22 37 93 49 133 5 17 18 57 30 90 12 33 28 83 36 110 13
45 22 82 68 265 73 289 126 737 126 1049 0 269 -37 619 -96 901 -30 146 -92
377 -117 440 -5 14 -13 39 -17 55 -5 17 -23 68 -40 115 -18 47 -39 103 -47
124 -49 134 -220 471 -322 636 -193 314 -380 550 -646 815 -229 229 -474 431
-700 575 -246 157 -497 291 -695 370 -30 12 -68 28 -85 35 -38 18 -170 64
-211 74 -18 5 -37 11 -43 15 -11 7 -90 31 -151 45 -19 5 -80 20 -135 34 -172
44 -299 67 -564 102 -119 16 -581 27 -761 19z"/>
</g>
</svg>
