<?xml version="1.0" standalone="no"?>
<!DOCTYPE svg PUBLIC "-//W3C//DTD SVG 20010904//EN"
 "http://www.w3.org/TR/2001/REC-SVG-20010904/DTD/svg10.dtd">
<svg version="1.0" xmlns="http://www.w3.org/2000/svg"
 width="900.000000pt" height="900.000000pt" viewBox="0 0 900.000000 900.000000"
 preserveAspectRatio="xMidYMid meet">
<metadata>
Created by potrace 1.10, written by Peter Selinger 2001-2011
</metadata>
<g transform="translate(0.000000,900.000000) scale(0.100000,-0.100000)"
fill="#000000" stroke="none">
<path d="M4127 8986 c-4 -10 -32 -16 -94 -20 -154 -11 -470 -66 -648 -113 -85
-22 -253 -71 -300 -88 -93 -31 -222 -78 -250 -90 -16 -7 -50 -21 -75 -31 -63
-24 -398 -187 -458 -223 -27 -16 -75 -43 -106 -60 -49 -28 -123 -76 -321 -211
-306 -209 -704 -596 -979 -954 -50 -64 -265 -384 -277 -411 -5 -11 -19 -36
-31 -55 -38 -62 -203 -393 -237 -475 -18 -44 -37 -88 -42 -97 -19 -37 -124
-349 -154 -458 -9 -36 -23 -85 -30 -110 -40 -143 -95 -466 -114 -665 -14 -143
-14 -727 0 -870 19 -199 74 -522 114 -665 7 -25 21 -74 30 -110 38 -136 141
-440 156 -454 5 -6 9 -16 9 -23 0 -26 186 -410 254 -527 26 -42 46 -79 46 -82
0 -3 9 -17 19 -32 11 -15 49 -72 85 -127 35 -55 80 -121 98 -146 18 -25 48
-68 67 -95 19 -27 39 -53 45 -59 6 -5 27 -30 46 -55 155 -202 498 -546 700
-700 25 -19 50 -40 55 -46 6 -6 32 -26 59 -45 27 -19 70 -49 95 -67 25 -18 91
-63 146 -98 55 -36 112 -74 127 -85 15 -10 29 -19 32 -19 2 0 37 -19 78 -43
113 -67 504 -257 529 -257 6 0 23 -6 37 -14 15 -7 43 -19 62 -26 291 -102 275
-97 525 -161 83 -21 159 -39 170 -39 11 0 49 -6 85 -14 101 -23 253 -44 395
-57 142 -12 790 -6 930 9 203 22 503 81 695 137 25 8 72 21 105 31 33 9 76 22
95 29 19 7 76 27 125 45 50 17 102 38 117 46 14 8 31 14 37 14 6 0 50 18 98
41 49 22 124 57 168 77 44 20 85 39 91 44 6 4 45 26 88 48 43 22 95 52 117 65
21 14 41 25 44 25 3 0 18 9 33 19 15 11 72 49 127 85 55 35 121 80 146 98 25
18 68 48 95 67 109 77 337 276 483 422 146 146 345 374 422 483 19 27 49 70
67 95 18 25 63 91 98 146 36 55 74 112 85 127 10 15 19 29 19 32 0 3 20 40 46
82 65 111 254 501 254 525 0 6 6 23 14 37 26 50 76 196 150 442 61 203 117
497 136 715 8 83 15 123 25 131 13 9 15 67 15 364 0 297 -2 355 -15 364 -10 8
-17 48 -25 131 -19 217 -72 498 -135 715 -48 161 -118 371 -150 445 -7 17 -21
50 -31 75 -29 76 -192 406 -239 486 -25 42 -45 78 -45 80 0 3 -8 17 -19 32
-10 15 -65 97 -121 182 -57 85 -106 157 -109 160 -4 3 -18 21 -31 40 -111 162
-436 508 -641 684 -224 192 -273 229 -479 363 -63 41 -127 84 -142 94 -15 10
-29 19 -32 19 -2 0 -37 19 -78 43 -40 24 -145 79 -233 121 -88 43 -167 82
-176 87 -60 29 -210 89 -314 124 -39 13 -81 28 -95 33 -32 12 -184 56 -295 85
-181 48 -495 102 -648 113 -62 4 -90 10 -94 20 -4 12 -65 14 -363 14 -298 0
-359 -2 -363 -14z m1573 -2473 c196 -56 328 -126 453 -240 58 -54 60 -55 105
-48 26 3 70 13 97 21 189 56 229 71 393 153 78 39 104 48 108 37 6 -15 -45
-128 -85 -191 -14 -22 -28 -46 -31 -53 -19 -44 -226 -247 -272 -264 -22 -9
-15 -28 10 -28 59 -1 302 64 452 120 30 11 56 20 57 20 9 0 -18 -46 -63 -105
-80 -107 -195 -226 -314 -325 l-108 -90 -5 -193 c-4 -186 -11 -256 -43 -437
-53 -303 -137 -554 -286 -855 -47 -96 -40 -83 -126 -225 -422 -692 -1098
-1163 -1887 -1314 -227 -43 -296 -49 -595 -49 -301 0 -364 5 -580 49 -133 27
-284 68 -338 90 -18 8 -39 14 -47 14 -8 0 -29 6 -47 14 -18 8 -58 24 -88 36
-173 69 -469 224 -456 238 3 3 106 6 228 7 163 2 247 7 313 19 143 28 282 64
360 93 22 8 58 22 80 30 78 30 293 142 383 199 129 84 131 98 20 109 -261 23
-531 181 -700 409 -59 80 -153 257 -146 278 3 7 59 10 173 9 248 -2 295 19
150 68 -248 83 -466 275 -588 518 -53 103 -92 245 -102 362 -8 101 -1 108 64
76 64 -33 151 -60 253 -80 124 -25 134 -17 63 48 -140 126 -212 218 -273 348
-72 153 -102 287 -102 448 0 165 28 290 96 439 26 54 38 71 48 65 8 -4 57 -56
110 -115 230 -253 547 -491 861 -645 326 -160 590 -238 976 -288 69 -9 137
-15 150 -13 21 3 23 7 19 38 -11 75 -5 365 8 410 39 134 49 161 79 225 39 83
43 89 109 180 158 218 419 373 684 405 93 12 315 2 380 -17z"/>
</g>
</svg>
