<?xml version="1.0" standalone="no"?>
<!DOCTYPE svg PUBLIC "-//W3C//DTD SVG 20010904//EN"
 "http://www.w3.org/TR/2001/REC-SVG-20010904/DTD/svg10.dtd">
<svg version="1.0" xmlns="http://www.w3.org/2000/svg"
 width="900.000000pt" height="900.000000pt" viewBox="0 0 900.000000 900.000000"
 preserveAspectRatio="xMidYMid meet">
<metadata>
Created by potrace 1.10, written by Peter Selinger 2001-2011
</metadata>
<g transform="translate(0.000000,900.000000) scale(0.100000,-0.100000)"
fill="#000000" stroke="none">
<path d="M4127 8986 c-4 -10 -32 -16 -94 -20 -90 -6 -228 -26 -363 -51 -41 -8
-86 -16 -100 -19 -67 -11 -163 -36 -345 -87 -82 -23 -139 -41 -230 -74 -55
-20 -111 -40 -125 -44 -98 -33 -463 -206 -570 -269 -19 -11 -53 -30 -74 -42
-43 -23 -191 -118 -246 -157 -19 -13 -64 -44 -100 -68 -36 -24 -117 -85 -180
-136 -436 -347 -784 -744 -1078 -1229 -118 -195 -260 -490 -349 -725 -8 -22
-21 -55 -29 -73 -8 -18 -14 -39 -14 -47 0 -8 -6 -29 -14 -47 -13 -31 -20 -54
-59 -193 -68 -239 -122 -526 -146 -780 -14 -143 -14 -727 0 -870 20 -212 67
-482 116 -670 28 -108 73 -262 85 -295 5 -14 20 -56 33 -95 36 -108 122 -320
155 -384 5 -9 30 -61 57 -116 42 -87 114 -220 143 -265 6 -8 13 -22 17 -30 11
-26 101 -164 201 -310 250 -365 713 -829 1062 -1065 36 -24 98 -67 138 -94 41
-28 75 -51 77 -51 2 0 21 -12 42 -26 21 -14 47 -30 58 -35 11 -5 34 -18 50
-28 47 -30 121 -70 240 -129 61 -29 117 -57 126 -62 63 -33 276 -119 384 -155
39 -13 81 -28 95 -33 23 -9 59 -20 185 -55 239 -68 526 -122 780 -146 143 -14
727 -14 870 0 111 10 264 32 365 51 30 5 75 14 100 19 107 20 176 37 365 90
82 23 139 41 230 74 55 20 111 40 125 44 27 9 166 69 240 103 141 64 333 164
400 208 8 6 22 13 30 17 26 11 164 101 310 201 367 252 829 712 1065 1062 24
36 55 81 68 100 36 51 137 208 137 214 0 2 26 49 57 103 32 54 80 143 106 198
27 55 52 107 57 116 33 64 119 276 155 384 13 39 28 81 33 95 12 32 56 184 85
295 47 178 102 492 112 638 7 96 12 120 26 111 5 -3 9 145 9 354 0 300 -2 361
-14 365 -10 4 -16 32 -20 94 -11 153 -65 467 -113 648 -29 111 -73 263 -85
295 -5 14 -20 56 -33 95 -36 108 -121 318 -155 384 -4 9 -37 75 -73 146 -35
72 -74 146 -85 165 -11 19 -30 53 -42 75 -12 22 -35 59 -51 83 -16 24 -29 45
-29 47 0 3 -21 35 -47 72 -25 38 -68 100 -94 138 -68 98 -216 283 -312 390
-298 331 -609 593 -982 826 -39 24 -79 50 -90 57 -11 6 -27 15 -35 19 -8 4
-46 25 -85 48 -69 40 -318 165 -329 165 -3 0 -34 13 -68 28 -35 16 -81 36
-103 44 -145 56 -248 93 -300 108 -247 72 -366 103 -465 120 -25 4 -70 12
-100 18 -114 22 -258 42 -343 48 -62 4 -90 10 -94 20 -4 12 -65 14 -363 14
-298 0 -359 -2 -363 -14z m828 -1756 c128 -19 251 -43 310 -60 17 -4 57 -16
90 -25 79 -23 159 -52 299 -110 90 -37 230 -108 298 -151 20 -13 40 -24 42
-24 8 0 137 -90 241 -168 116 -88 372 -341 462 -457 63 -81 163 -222 163 -230
0 -2 14 -24 30 -49 36 -52 131 -235 167 -321 138 -324 208 -642 220 -1005 8
-238 -26 -526 -87 -745 -12 -44 -26 -93 -30 -110 -14 -54 -57 -171 -76 -208
-8 -16 -14 -33 -14 -39 0 -10 -119 -253 -143 -293 -7 -10 -23 -37 -37 -60 -14
-22 -27 -45 -30 -50 -15 -31 -109 -162 -176 -245 -170 -212 -368 -393 -614
-562 -36 -24 -72 -47 -80 -51 -8 -4 -37 -21 -65 -37 -27 -17 -102 -55 -165
-86 -63 -30 -123 -59 -132 -64 -64 -36 -349 -122 -503 -153 -224 -45 -276 -50
-540 -50 -263 0 -305 3 -535 49 -130 26 -287 70 -425 122 -56 20 -84 33 -208
92 -118 56 -136 58 -247 26 -50 -15 -142 -40 -340 -91 -65 -16 -106 -27 -230
-59 -36 -10 -87 -23 -115 -30 -85 -23 -178 -47 -230 -61 -49 -13 -93 -25 -225
-59 -36 -10 -79 -22 -96 -27 -17 -5 -36 -9 -42 -9 -16 0 -15 35 2 90 13 42 24
79 62 220 9 30 21 75 29 100 7 25 20 74 30 110 9 36 23 90 32 120 8 30 21 78
29 105 7 28 20 73 28 100 7 28 21 79 31 115 10 36 23 85 30 110 7 25 20 74 30
110 10 36 24 85 31 110 25 83 22 100 -45 236 -35 71 -68 138 -73 148 -6 11
-14 31 -18 45 -5 14 -18 51 -30 81 -12 30 -25 69 -30 85 -5 17 -13 44 -18 60
-68 197 -122 549 -122 785 0 94 29 417 41 446 5 14 9 38 9 53 0 25 10 69 53
231 79 296 237 617 431 875 271 360 583 620 976 812 278 136 504 206 825 257
147 22 569 21 730 -4z"/>
<path d="M4295 6784 c-152 -24 -321 -62 -395 -89 -375 -136 -629 -289 -871
-526 -314 -308 -517 -663 -623 -1094 -45 -185 -51 -244 -51 -515 0 -293 10
-365 89 -650 25 -91 107 -292 152 -375 13 -22 35 -62 49 -90 15 -27 37 -63 49
-80 37 -52 47 -84 37 -119 -5 -17 -16 -57 -25 -88 -39 -141 -47 -171 -61 -223
-39 -140 -48 -173 -60 -215 -7 -25 -20 -74 -29 -110 -10 -36 -21 -77 -26 -92
-13 -43 6 -51 76 -32 32 9 75 20 94 23 19 4 51 13 70 19 19 6 64 18 100 27 36
9 88 23 115 30 28 8 79 21 115 31 36 9 85 22 110 29 132 37 153 39 195 15 86
-49 218 -120 223 -120 3 0 28 -11 57 -24 53 -26 87 -39 190 -73 121 -41 176
-55 370 -94 33 -6 165 -14 294 -16 311 -7 440 11 746 105 104 31 282 109 390
171 334 189 636 481 832 806 29 48 144 286 166 345 201 522 202 1083 1 1610
-28 72 -37 94 -87 195 -35 72 -45 89 -110 195 -158 259 -454 550 -737 722 -84
51 -281 149 -350 173 -194 68 -325 101 -517 130 -130 19 -452 19 -578 -1z
m-455 -996 c39 -28 63 -73 140 -263 18 -44 39 -95 46 -112 15 -34 21 -51 73
-172 35 -84 40 -147 14 -189 -10 -15 -51 -71 -93 -125 -99 -129 -112 -155
-101 -193 14 -49 142 -237 231 -339 67 -78 176 -178 272 -251 53 -41 99 -74
102 -74 3 0 22 -12 43 -26 21 -14 97 -55 170 -90 102 -49 142 -64 177 -64 42
0 47 3 108 73 67 76 125 148 171 210 16 20 41 44 58 52 26 14 35 14 78 1 26
-8 57 -19 67 -24 11 -6 64 -32 119 -58 251 -117 391 -190 412 -212 18 -20 23
-36 23 -81 0 -121 -46 -272 -102 -336 -98 -111 -283 -214 -421 -234 -149 -21
-300 -8 -432 39 -33 12 -73 25 -90 30 -16 4 -55 18 -85 30 -30 12 -67 25 -81
30 -14 4 -34 12 -45 18 -32 17 -153 72 -158 72 -15 0 -285 172 -336 213 -8 7
-49 39 -90 71 -99 78 -351 332 -428 432 -34 43 -81 104 -105 134 -159 201
-280 423 -333 610 -27 92 -26 341 0 420 44 131 111 241 203 334 79 79 120 95
254 95 94 1 110 -2 139 -21z"/>
</g>
</svg>
